<?xml version="1.0" encoding="UTF-8" standalone="no"?>
<!-- Created with Inkscape (http://www.inkscape.org/) -->

<svg
   width="24mm"
   height="24mm"
   viewBox="0 0 24 24"
   version="1.1"
   id="svg3700"
   inkscape:version="1.2.2 (b0a8486541, 2022-12-01)"
   sodipodi:docname="background-black.svg"
   xmlns:inkscape="http://www.inkscape.org/namespaces/inkscape"
   xmlns:sodipodi="http://sodipodi.sourceforge.net/DTD/sodipodi-0.dtd"
   xmlns="http://www.w3.org/2000/svg"
   xmlns:svg="http://www.w3.org/2000/svg">
  <sodipodi:namedview
     id="namedview3702"
     pagecolor="#ffffff"
     bordercolor="#000000"
     borderopacity="0.25"
     inkscape:showpageshadow="2"
     inkscape:pageopacity="0.0"
     inkscape:pagecheckerboard="0"
     inkscape:deskcolor="#d1d1d1"
     inkscape:document-units="mm"
     showgrid="false"
     inkscape:zoom="0.77326038"
     inkscape:cx="30.390798"
     inkscape:cy="170.05915"
     inkscape:window-width="1878"
     inkscape:window-height="1011"
     inkscape:window-x="42"
     inkscape:window-y="1112"
     inkscape:window-maximized="1"
     inkscape:current-layer="layer1" />
  <defs
     id="defs3697" />
  <g
     inkscape:label="Layer 1"
     inkscape:groupmode="layer"
     id="layer1">
    <path
       id="path1692"
       style="display:inline;font-size:3.175px;fill:#090909;stroke-width:0.264583;font-weight:900;font-family:'Font Awesome 6 Pro';-inkscape-font-specification:'Font Awesome 6 Pro Heavy'"
       inkscape:label="path1692"
       transform="matrix(7.5590384,0,0,7.559036,-348.20281,-665.4187)"
       d="m 47.509308,88.060582 c 0.09509,-0.04134 0.192236,-0.04134 0.291455,0 l 1.351855,0.626318 v 0 c 0.05375,0.02894 0.08269,0.07442 0.08682,0.136426 -0.0041,0.06201 -0.03307,0.107489 -0.08682,0.136426 l -1.358056,0.626318 v 0 c -0.09508,0.04134 -0.192236,0.04134 -0.291455,0 l -1.351856,-0.626318 v 0 c -0.05375,-0.02894 -0.08269,-0.07441 -0.08682,-0.136426 0.0041,-0.06201 0.03307,-0.107489 0.08682,-0.136426 z m 1.314648,1.27124 0.328662,0.148828 -0.328662,-0.148828 0.328662,0.148828 c 0.05375,0.02894 0.08269,0.07442 0.08682,0.136426 -0.0041,0.06201 -0.03307,0.107489 -0.08682,0.136426 l -1.358056,0.626318 v 0 c -0.09508,0.04134 -0.192236,0.04134 -0.291455,0 l -1.351856,-0.626318 v 0 c -0.05375,-0.02894 -0.08269,-0.07442 -0.08682,-0.136426 0.0041,-0.06201 0.03307,-0.107489 0.08682,-0.136426 l 0.328662,-0.148828 v 0 l 0.942578,0.434082 v 0 c 0.152963,0.06615 0.305925,0.06615 0.458887,0 z m -1.308447,-1.27124 q 0.06821,-0.03101 0.136426,-0.03101 0.06821,0 0.136426,0.03101 l 1.345654,0.601513 v 0 q 0.09922,0.04961 0.10542,0.161231 -0.0062,0.111621 -0.10542,0.16123 l -1.345654,0.601514 v 0 q -0.06821,0.03101 -0.136426,0.03101 -0.06821,0 -0.136426,-0.03101 l -1.345654,-0.601514 v 0 q -0.09922,-0.04961 -0.10542,-0.16123 0.0062,-0.111621 0.10542,-0.161231 z m 0.136426,0.167431 q -0.03101,0 -0.05581,0.0124 l -1.302246,0.58291 v 0 l 1.302246,0.58291 v 0 q 0.02481,0.0124 0.05581,0.0124 0.03101,0 0.05581,-0.0124 l 1.302247,-0.58291 v 0 l -1.302247,-0.58291 v 0 q -0.0248,-0.0124 -0.05581,-0.0124 z m -1.48208,2.021582 0.285254,-0.124023 -0.285254,0.124023 0.285254,-0.124023 0.241845,0.10542 v 0 l -0.403076,0.179834 v 0 l 1.302246,0.58291 v 0 q 0.02481,0.0124 0.05581,0.0124 0.03101,0 0.05581,-0.0124 l 1.302247,-0.58291 v 0 l -0.403077,-0.179834 v 0 l 0.241846,-0.10542 v 0 l 0.285254,0.124023 v 0 q 0.09922,0.04961 0.10542,0.161231 -0.0062,0.111621 -0.10542,0.16123 l -1.345653,0.601514 v 0 q -0.06821,0.03101 -0.136426,0.03101 -0.06821,0 -0.136426,-0.03101 l -1.345654,-0.601514 v 0 q -0.09922,-0.04961 -0.10542,-0.16123 0.0062,-0.111621 0.10542,-0.161231 z m 0.285254,-0.917773 0.241845,0.10542 -0.241845,-0.10542 0.241845,0.10542 -0.403076,0.179834 v 0 l 1.302246,0.58291 v 0 q 0.02481,0.0124 0.05581,0.0124 0.03101,0 0.05581,-0.0124 l 1.302247,-0.58291 v 0 l -0.403077,-0.179834 v 0 l 0.241846,-0.10542 v 0 l 0.285254,0.124023 v 0 q 0.09922,0.04961 0.10542,0.161231 -0.0062,0.111621 -0.10542,0.16123 l -1.345653,0.601514 v 0 q -0.06821,0.03101 -0.136426,0.03101 -0.06821,0 -0.136426,-0.03101 l -1.345654,-0.601514 v 0 q -0.09922,-0.04961 -0.10542,-0.16123 0.0062,-0.111621 0.10542,-0.161231 z" />
  </g>
</svg>
