<?xml version="1.0" encoding="UTF-8" standalone="no"?>
<!-- Created with Inkscape (http://www.inkscape.org/) -->

<svg
   width="23.999947mm"
   height="24mm"
   viewBox="0 0 23.999947 24"
   version="1.1"
   id="svg3112"
   inkscape:version="1.2.2 (b0a8486541, 2022-12-01)"
   sodipodi:docname="foreground-black.svg"
   xmlns:inkscape="http://www.inkscape.org/namespaces/inkscape"
   xmlns:sodipodi="http://sodipodi.sourceforge.net/DTD/sodipodi-0.dtd"
   xmlns="http://www.w3.org/2000/svg"
   xmlns:svg="http://www.w3.org/2000/svg">
  <sodipodi:namedview
     id="namedview3114"
     pagecolor="#ffffff"
     bordercolor="#000000"
     borderopacity="0.25"
     inkscape:showpageshadow="2"
     inkscape:pageopacity="0.0"
     inkscape:pagecheckerboard="0"
     inkscape:deskcolor="#d1d1d1"
     inkscape:document-units="mm"
     showgrid="false"
     inkscape:zoom="0.77326038"
     inkscape:cx="58.195145"
     inkscape:cy="118.33013"
     inkscape:window-width="1452"
     inkscape:window-height="749"
     inkscape:window-x="92"
     inkscape:window-y="1198"
     inkscape:window-maximized="0"
     inkscape:current-layer="layer1" />
  <defs
     id="defs3109" />
  <g
     inkscape:label="Layer 1"
     inkscape:groupmode="layer"
     id="layer1"
     transform="translate(-236.41246,-112.20622)">
    <path
       id="path1575"
       style="display:inline;font-weight:300;font-size:3.175px;font-family:'Font Awesome 6 Pro';-inkscape-font-specification:'Font Awesome 6 Pro Light';fill:#090909;stroke-width:0.264583"
       inkscape:label="path1575"
       transform="matrix(7.5590384,0,0,7.559036,-177.77835,-540.13671)"
       d="m 56.245188,86.330762 q 0.06821,-0.03101 0.136426,-0.03101 0.06821,0 0.136426,0.03101 l 1.345654,0.601513 v 0 q 0.09922,0.04961 0.10542,0.161231 -0.0062,0.111621 -0.10542,0.16123 L 56.51804,87.85625 v 0 q -0.06821,0.03101 -0.136426,0.03101 -0.06821,0 -0.136426,-0.03101 l -1.345654,-0.601514 v 0 q -0.09922,-0.04961 -0.10542,-0.16123 0.0062,-0.111621 0.10542,-0.161231 z m 0.136426,0.167431 q -0.03101,0 -0.05581,0.0124 l -1.302246,0.58291 v 0 l 1.302246,0.58291 v 0 q 0.02481,0.0124 0.05581,0.0124 0.03101,0 0.05581,-0.0124 l 1.302247,-0.58291 v 0 l -1.302247,-0.58291 v 0 q -0.0248,-0.0124 -0.05581,-0.0124 z m -1.48208,2.021582 0.285254,-0.124023 -0.285254,0.124023 0.285254,-0.124023 0.241845,0.10542 v 0 l -0.403076,0.179834 v 0 l 1.302246,0.58291 v 0 q 0.02481,0.0124 0.05581,0.0124 0.03101,0 0.05581,-0.0124 l 1.302247,-0.58291 v 0 l -0.403077,-0.179834 v 0 l 0.241846,-0.10542 v 0 l 0.285254,0.124023 v 0 q 0.09922,0.04961 0.10542,0.161231 -0.0062,0.111621 -0.10542,0.16123 L 56.51804,89.44375 v 0 q -0.06821,0.03101 -0.136426,0.03101 -0.06821,0 -0.136426,-0.03101 l -1.345654,-0.601514 v 0 q -0.09922,-0.04961 -0.10542,-0.16123 0.0062,-0.111621 0.10542,-0.161231 z m 0.285254,-0.917773 0.241845,0.10542 -0.241845,-0.10542 0.241845,0.10542 -0.403076,0.179834 v 0 l 1.302246,0.58291 v 0 q 0.02481,0.0124 0.05581,0.0124 0.03101,0 0.05581,-0.0124 l 1.302247,-0.58291 v 0 l -0.403077,-0.179834 v 0 l 0.241846,-0.10542 v 0 l 0.285254,0.124023 v 0 q 0.09922,0.04961 0.10542,0.161231 -0.0062,0.111621 -0.10542,0.16123 L 56.51804,88.65 v 0 q -0.06821,0.03101 -0.136426,0.03101 -0.06821,0 -0.136426,-0.03101 l -1.345654,-0.601514 v 0 q -0.09922,-0.04961 -0.10542,-0.16123 0.0062,-0.111621 0.10542,-0.161231 z m 2.368847,0 0.328662,0.148828 -0.328662,-0.148828 0.328662,0.148828 c 0.05375,0.02894 0.08269,0.07442 0.08682,0.136426 -0.0041,0.06201 -0.03307,0.107489 -0.08682,0.136426 L 56.524241,88.65 v 0 c -0.09508,0.04134 -0.192236,0.04134 -0.291455,0 L 54.88093,88.023682 v 0 c -0.05375,-0.02894 -0.08269,-0.07442 -0.08682,-0.136426 0.0041,-0.06201 0.03307,-0.107489 0.08682,-0.136426 l 0.328662,-0.148828 v 0 l 0.942578,0.434082 v 0 c 0.152963,0.06615 0.305925,0.06615 0.458887,0 z m -0.942578,1.227832 0.942578,-0.434082 -0.942578,0.434082 0.942578,-0.434082 0.328662,0.148828 v 0 c 0.05375,0.02894 0.08269,0.07442 0.08682,0.136426 -0.0041,0.06201 -0.03307,0.107489 -0.08682,0.136426 l -1.358056,0.626318 v 0 c -0.09508,0.04134 -0.192236,0.04134 -0.291455,0 L 54.88093,88.817432 v 0 c -0.05375,-0.02894 -0.08269,-0.07442 -0.08682,-0.136426 0.0041,-0.06201 0.03307,-0.107489 0.08682,-0.136426 l 0.328662,-0.148828 v 0 l 0.942578,0.434082 v 0 c 0.152963,0.06615 0.305925,0.06615 0.458887,0 z" />
  </g>
</svg>
