<?xml version="1.0" encoding="UTF-8" standalone="no"?>
<svg
   viewBox="0 0 448 512"
   version="1.1"
   id="svg517"
   sodipodi:docname="select-text.svg"
   inkscape:version="1.2.2 (b0a8486541, 2022-12-01)"
   xmlns:inkscape="http://www.inkscape.org/namespaces/inkscape"
   xmlns:sodipodi="http://sodipodi.sourceforge.net/DTD/sodipodi-0.dtd"
   xmlns="http://www.w3.org/2000/svg"
   xmlns:svg="http://www.w3.org/2000/svg"
   xmlns:rdf="http://www.w3.org/1999/02/22-rdf-syntax-ns#"
   xmlns:cc="http://creativecommons.org/ns#">
  <defs
     id="defs521">
    <inkscape:path-effect
       effect="perspective-envelope"
       up_left_point="142.39741,124.46311"
       up_right_point="163.6162,133.83789"
       down_left_point="120.7604,133.83171"
       down_right_point="142.26156,143.78586"
       id="path-effect7261"
       is_visible="true"
       lpeversion="1"
       deform_type="perspective"
       horizontal_mirror="false"
       vertical_mirror="false"
       overflow_perspective="false" />
    <rect
       x="134.25259"
       y="121.23065"
       width="89.015595"
       height="92.894165"
       id="rect7199" />
  </defs>
  <sodipodi:namedview
     id="namedview519"
     pagecolor="#ffffff"
     bordercolor="#000000"
     borderopacity="0.25"
     inkscape:showpageshadow="2"
     inkscape:pageopacity="0.0"
     inkscape:pagecheckerboard="0"
     inkscape:deskcolor="#d1d1d1"
     showgrid="false"
     inkscape:zoom="1"
     inkscape:cx="247"
     inkscape:cy="148.5"
     inkscape:window-width="1878"
     inkscape:window-height="1011"
     inkscape:window-x="42"
     inkscape:window-y="1112"
     inkscape:window-maximized="1"
     inkscape:current-layer="svg517"
     showguides="true">
    <sodipodi:guide
       position="71.66245,526.49457"
       orientation="1,0"
       id="guide2559"
       inkscape:locked="false" />
    <sodipodi:guide
       position="371.93817,282.8974"
       orientation="1,0"
       id="guide2561"
       inkscape:locked="false" />
    <sodipodi:guide
       position="281.4285,409.46952"
       orientation="0,-1"
       id="guide2563"
       inkscape:locked="false" />
    <sodipodi:guide
       position="-16.970563,108.94913"
       orientation="0,-1"
       id="guide2565"
       inkscape:locked="false" />
    <sodipodi:guide
       position="139.30004,333.45554"
       orientation="0,-1"
       id="guide4019"
       inkscape:locked="false" />
    <sodipodi:guide
       position="154.85639,258.50222"
       orientation="0,-1"
       id="guide4021"
       inkscape:locked="false" />
    <sodipodi:guide
       position="154.50283,183.5489"
       orientation="0,-1"
       id="guide4023"
       inkscape:locked="false" />
  </sodipodi:namedview>
  <!--!Font Awesome Free 6.7.1 by @fontawesome - https://fontawesome.com License - https://fontawesome.com/license/free Copyright 2024 Fonticons, Inc.-->
  <path
     id="path1575"
     style="font-weight:300;font-size:3.175px;font-family:'Font Awesome 6 Pro';-inkscape-font-specification:'Font Awesome 6 Pro Light';display:inline;fill:#000000;fill-opacity:1;stroke-width:36.9557"
     inkscape:label="path1575"
     d="m 204.20052,34.165782 q 9.52721,-4.331338 19.05523,-4.331338 9.52721,0 19.0553,4.331338 l 187.95378,84.016108 v 0 q 13.85856,6.92927 14.72455,22.51987 -0.86599,15.59063 -14.72455,22.51978 l -187.95378,84.01623 v 0 q -9.52726,4.33129 -19.0553,4.33129 -9.5272,0 -19.05523,-4.33129 L 16.246658,163.22154 v 0 Q 2.3881085,156.29226 1.5221312,140.70176 2.3881085,125.11116 16.246658,118.18189 Z m 19.05523,23.385846 q -4.33129,0 -7.79524,1.73196 L 33.569648,140.70137 v 0 L 215.46051,222.1191 v 0 q 3.46533,1.73199 7.79524,1.73199 4.3313,0 7.79525,-1.73199 l 181.891,-81.41773 v 0 L 231.051,59.283588 v 0 q -3.46395,-1.73196 -7.79525,-1.73196 z M 16.246658,339.91545 l 39.842773,-17.3229 -39.842773,17.3229 39.842773,-17.3229 33.779619,14.72455 v 0 l -56.299548,25.11823 v 0 l 181.890858,81.41778 v 0 q 3.46537,1.73195 7.79525,1.73195 4.33136,0 7.79525,-1.73195 l 181.891,-81.41778 v 0 L 356.64217,337.3171 v 0 l 33.77981,-14.72455 v 0 l 39.84277,17.3229 v 0 q 13.8585,6.92923 14.72447,22.51988 -0.86597,15.59059 -14.72447,22.51973 l -187.9537,84.01629 v 0 q -9.52726,4.3313 -19.0553,4.3313 -9.5272,0 -19.05523,-4.3313 L 16.246658,384.95506 v 0 Q 2.3881085,378.02582 1.5221312,362.43533 2.3881085,346.84468 16.246658,339.91545 Z M 56.089431,211.72576 89.86905,226.4503 56.089431,211.72576 89.86905,226.4503 33.569502,251.56854 v 0 l 181.890858,81.41778 v 0 q 3.46537,1.73195 7.79525,1.73195 4.33136,0 7.79525,-1.73195 l 181.891,-81.41778 v 0 L 356.64217,226.4503 v 0 l 33.77981,-14.72454 v 0 l 39.84277,17.3229 v 0 q 13.8585,6.92927 14.72447,22.51988 -0.86597,15.59065 -14.72447,22.51973 l -187.9537,84.0163 v 0 q -9.52726,4.33129 -19.0553,4.33129 -9.5272,0 -19.05523,-4.33129 L 16.246658,274.08827 v 0 Q 2.3881085,267.15905 1.5221312,251.56854 2.3881085,235.97793 16.246658,229.04866 Z m 330.868059,0 45.90579,20.78755 -45.90579,-20.78755 45.90579,20.78755 c 7.50747,4.04217 11.54964,10.39459 12.12653,19.05523 -0.57269,8.66122 -4.61906,15.01352 -12.12653,19.05524 l -189.68611,87.48079 v 0 c -13.28029,5.77415 -26.85055,5.77415 -40.7089,0 L 13.648142,270.62378 v 0 C 6.1406065,266.58161 2.0984386,260.22923 1.5215943,251.56854 2.0942349,242.90732 6.1406065,236.55504 13.648142,232.51331 l 45.905782,-20.78755 v 0 l 131.654306,60.63027 v 0 c 21.36509,9.23949 42.72997,9.23949 64.0949,0 z m -131.65436,171.49705 131.65436,-60.63026 -131.65436,60.63026 131.65436,-60.63026 45.90579,20.7875 v 0 c 7.50747,4.04221 11.54964,10.39458 12.12653,19.05528 -0.57269,8.66123 -4.61906,15.01345 -12.12653,19.05525 l -189.68611,87.48077 v 0 c -13.28029,5.77411 -26.85055,5.77411 -40.7089,0 L 13.648142,381.49058 v 0 C 6.1406065,377.44839 2.0984386,371.09597 1.5215943,362.43533 2.0942349,353.77409 6.1406065,347.42181 13.648142,343.38005 l 45.905782,-20.7875 v 0 l 131.654306,60.63026 v 0 c 21.36509,9.23949 42.72997,9.23949 64.0949,0 z" />
  <metadata
     id="metadata1231">
    <rdf:RDF>
      <cc:License
         rdf:about="http://creativecommons.org/licenses/by/4.0/">
        <cc:permits
           rdf:resource="http://creativecommons.org/ns#Reproduction" />
        <cc:permits
           rdf:resource="http://creativecommons.org/ns#Distribution" />
        <cc:requires
           rdf:resource="http://creativecommons.org/ns#Notice" />
        <cc:requires
           rdf:resource="http://creativecommons.org/ns#Attribution" />
        <cc:permits
           rdf:resource="http://creativecommons.org/ns#DerivativeWorks" />
      </cc:License>
      <cc:Work
         rdf:about="">
        <cc:license
           rdf:resource="http://creativecommons.org/licenses/by/4.0/" />
      </cc:Work>
    </rdf:RDF>
  </metadata>
  <path
     style="font-weight:300;font-size:3.175px;font-family:'Font Awesome 6 Pro';-inkscape-font-specification:'Font Awesome 6 Pro Light';display:none;fill:#000000;fill-opacity:1;stroke-width:36.9557"
     d="m 255.30313,383.22281 131.65436,-60.63026 -131.65436,60.63026 131.65436,-60.63026 45.90579,20.7875 v 0 c 7.50747,4.04221 11.54964,10.39458 12.12653,19.05528 -0.57269,8.66123 -4.61906,15.01345 -12.12653,19.05525 l -189.68611,87.48077 v 0 c -13.28029,5.77411 -26.85055,5.77411 -40.7089,0 L 13.648142,381.49058 v 0 C 6.1406065,377.44839 2.0984386,371.09597 1.5215943,362.43533 2.0942349,353.77409 6.1406065,347.42181 13.648142,343.38005 l 45.905782,-20.7875 v 0 l 131.654306,60.63026 v 0 c 21.36509,9.23949 42.72997,9.23949 64.0949,0 z"
     id="path4120" />
  <path
     style="font-weight:300;font-size:3.175px;font-family:'Font Awesome 6 Pro';-inkscape-font-specification:'Font Awesome 6 Pro Light';display:none;fill:#000000;fill-opacity:1;stroke-width:36.9557"
     d="m 386.95749,211.72576 45.90579,20.78755 -45.90579,-20.78755 45.90579,20.78755 c 7.50747,4.04217 11.54964,10.39459 12.12653,19.05523 -0.57269,8.66122 -4.61906,15.01352 -12.12653,19.05524 l -189.68611,87.48079 v 0 c -13.28029,5.77415 -26.85055,5.77415 -40.7089,0 L 13.648142,270.62378 v 0 C 6.1406065,266.58161 2.0984386,260.22923 1.5215943,251.56854 2.0942349,242.90732 6.1406065,236.55504 13.648142,232.51331 l 45.905782,-20.78755 v 0 l 131.654306,60.63027 v 0 c 21.36509,9.23949 42.72997,9.23949 64.0949,0 z"
     id="path4118" />
  <path
     style="font-weight:300;font-size:3.175px;font-family:'Font Awesome 6 Pro';-inkscape-font-specification:'Font Awesome 6 Pro Light';display:none;fill:#000000;fill-opacity:1;stroke-width:36.9557"
     d="M 56.089431,211.72576 89.86905,226.4503 56.089431,211.72576 89.86905,226.4503 33.569502,251.56854 v 0 l 181.890858,81.41778 v 0 q 3.46537,1.73195 7.79525,1.73195 4.33136,0 7.79525,-1.73195 l 181.891,-81.41778 v 0 L 356.64217,226.4503 v 0 l 33.77981,-14.72454 v 0 l 39.84277,17.3229 v 0 q 13.8585,6.92927 14.72447,22.51988 -0.86597,15.59065 -14.72447,22.51973 l -187.9537,84.0163 v 0 q -9.52726,4.33129 -19.0553,4.33129 -9.5272,0 -19.05523,-4.33129 L 16.246658,274.08827 v 0 Q 2.3881085,267.15905 1.5221312,251.56854 2.3881085,235.97793 16.246658,229.04866 Z"
     id="path4116" />
  <path
     style="font-weight:300;font-size:3.175px;font-family:'Font Awesome 6 Pro';-inkscape-font-specification:'Font Awesome 6 Pro Light';display:none;fill:#000000;fill-opacity:1;stroke-width:36.9557"
     d="m 16.246658,339.91545 39.842773,-17.3229 -39.842773,17.3229 39.842773,-17.3229 33.779619,14.72455 v 0 l -56.299548,25.11823 v 0 l 181.890858,81.41778 v 0 q 3.46537,1.73195 7.79525,1.73195 4.33136,0 7.79525,-1.73195 l 181.891,-81.41778 v 0 L 356.64217,337.3171 v 0 l 33.77981,-14.72455 v 0 l 39.84277,17.3229 v 0 q 13.8585,6.92923 14.72447,22.51988 -0.86597,15.59059 -14.72447,22.51973 l -187.9537,84.01629 v 0 q -9.52726,4.3313 -19.0553,4.3313 -9.5272,0 -19.05523,-4.3313 L 16.246658,384.95506 v 0 Q 2.3881085,378.02582 1.5221312,362.43533 2.3881085,346.84468 16.246658,339.91545 Z"
     id="path4114" />
  <path
     style="font-weight:300;font-size:3.175px;font-family:'Font Awesome 6 Pro';-inkscape-font-specification:'Font Awesome 6 Pro Light';display:none;fill:#000000;fill-opacity:1;stroke-width:36.9557"
     d="m 223.25575,57.551628 q -4.33129,0 -7.79524,1.73196 L 33.569648,140.70137 v 0 L 215.46051,222.1191 v 0 q 3.46533,1.73199 7.79524,1.73199 4.3313,0 7.79525,-1.73199 l 181.891,-81.41773 v 0 L 231.051,59.283588 v 0 q -3.46395,-1.73196 -7.79525,-1.73196 z"
     id="path4112" />
  <path
     style="font-weight:300;font-size:3.175px;font-family:'Font Awesome 6 Pro';-inkscape-font-specification:'Font Awesome 6 Pro Light';display:none;fill:#000000;fill-opacity:1;stroke-width:36.9557"
     d="m 204.20052,34.165782 q 9.52721,-4.331338 19.05523,-4.331338 9.52721,0 19.0553,4.331338 l 187.95378,84.016108 v 0 q 13.85856,6.92927 14.72455,22.51987 -0.86599,15.59063 -14.72455,22.51978 l -187.95378,84.01623 v 0 q -9.52726,4.33129 -19.0553,4.33129 -9.5272,0 -19.05523,-4.33129 L 16.246658,163.22154 v 0 Q 2.3881085,156.29226 1.5221312,140.70176 2.3881085,125.11116 16.246658,118.18189 Z"
     id="path4096" />
  <g
     aria-label="T"
     transform="matrix(7.9560034,0,0,7.9560034,-907.20048,-924.96582)"
     id="text7197"
     style="font-size:16px;font-family:Antonio;-inkscape-font-specification:'Antonio, Normal';white-space:pre;shape-inside:url(#rect7199);fill:#000000;fill-opacity:1;stroke:#000000;stroke-width:0.75"
     inkscape:label="text7197">
    <path
       d="m 125.54957,136.0489 1.31349,-0.57807 0.85203,0.39333 c 0.8165,0.37693 1.6371,0.65232 2.46103,0.82574 0.86996,0.17574 1.76036,0.0606 2.66875,-0.34453 l 16.68061,-7.43942 -3.52973,-1.56444 c -1.07317,-0.47564 -2.05997,-0.69769 -2.96281,-0.66697 -0.88391,0.0222 -1.6991,0.15319 -2.44622,0.39341 l -1.45688,0.47435 -1.89185,-0.84521 5.34043,-2.15401 20.84837,9.21113 -4.89937,2.45427 -1.97295,-0.88145 1.07143,-0.66751 c 0.54213,-0.34209 0.83186,-0.71567 0.87013,-1.12062 0.0576,-0.41281 -0.47788,-0.86888 -1.60425,-1.3681 l -3.62335,-1.60592 -16.48764,7.44874 c -0.9678,0.43723 -1.28606,0.85589 -0.95184,1.25557 0.35565,0.39118 0.9623,0.78491 1.82058,1.18113 l 0.87255,0.40281 -1.30473,0.59747 z"
       style="font-size:21.3333px;font-family:serif;-inkscape-font-specification:'serif, Normal';display:inline;fill:#000000;fill-opacity:1;stroke:#000000;stroke-opacity:1"
       id="path7258"
       inkscape:path-effect="#path-effect7261"
       inkscape:original-d="m 137.45195,140.64111 v -0.896 h 0.49066 q 0.704,0 1.216,-0.23467 0.53333,-0.256 0.53333,-1.19466 V 126.4758 h -2.04799 q -0.93867,0 -1.30133,0.53333 -0.36267,0.512 -0.448,1.216 l -0.10667,0.91733 h -1.10933 l 0.10667,-3.73333 h 12.01064 l 0.10667,3.73333 h -1.10933 l -0.10667,-0.91733 q -0.0853,-0.704 -0.448,-1.216 -0.36266,-0.53333 -1.32266,-0.53333 h -2.06933 v 11.73331 q 0,1.00267 0.512,1.28 0.512,0.256 1.23733,0.256 h 0.49066 v 0.896 z" />
  </g>
</svg>
